# xmcd
#
# Track frame offsets:
#        150
#        18270
#        29173
#        59573
#        80838
#        95255
#        114163
#        126340
#        137000
#        151378
#        161380
#        188280
#        199428
#        210240
#        248978
#        256198
#        269070
#        277160
#        292368
#
# Disc length: 4006 seconds
#
# Revision: 1
# Processed by: cddbd v1.5.1PL0 Copyright (c) Steve Scherf et al.
# Submitted via: ExactAudioCopy v0.95b2
#
DISCID=200fa413
DTITLE=The British Tuba Quartet - In at the Deep End
DYEAR=1991
DGENRE=Classical
TTITLE0=Quartet for Low Brass - Stephen BULLA
TTITLE1=Semper Fidelis - SOUSA
TTITLE2=Pop Suite - Arthur FRACKENPOHL
TTITLE3=Adagio from Symphony No.3 - SAINT-SEANS
TTITLE4=Jesu Joy of Mans Desiring - BACH
TTITLE5=Marriage of Figaro Overture - MOZART
TTITLE6=Notturno - RIMSKY-KORSAKOV
TTITLE7=Here's that Rain
TTITLE8=Fugue in G minor - BACH
TTITLE9=El Capitan - SOUSA
TTITLE10=Consortium - John CHEETHAM
TTITLE11=The Cascades Rag - JOPLIN
TTITLE12=Lute Dances - anonymous
TTITLE13=Quartet for Tubas - Frank L. PAYNE
TTITLE14=Rondo
TTITLE15=Sarabande - BACH
TTITLE16=Wabash Cannon Ball - Trad.
TTITLE17=Steak Away
TTITLE18=Washington Post - SOUSA
EXTD=
EXTT0=
EXTT1=
EXTT2=
EXTT3=
EXTT4=
EXTT5=
EXTT6=
EXTT7=
EXTT8=
EXTT9=
EXTT10=
EXTT11=
EXTT12=
EXTT13=
EXTT14=
EXTT15=
EXTT16=
EXTT17=
EXTT18=
PLAYORDER=
